<svg width="509" height="222" viewBox="0 0 509 222" fill="none" xmlns="http://www.w3.org/2000/svg">
<path d="M130.6 39.9C129.5 41.7 128.35 43.05 127.15 43.95C125.95 44.75 124.45 45.15 122.65 45.15C120.75 45.15 118.6 44.35 116.2 42.75C113.9 41.15 111 39.4 107.5 37.5C104.1 35.5 100.05 33.7 95.35 32.1C90.65 30.4 85.05 29.55 78.55 29.55C72.55 29.55 67.25 30.3 62.65 31.8C58.15 33.3 54.35 35.4 51.25 38.1C48.15 40.8 45.8 44 44.2 47.7C42.7 51.3 41.95 55.25 41.95 59.55C41.95 65.05 43.4 69.65 46.3 73.35C49.2 76.95 53 80.05 57.7 82.65C62.5 85.25 67.95 87.55 74.05 89.55C80.15 91.45 86.35 93.5 92.65 95.7C99.05 97.9 105.3 100.4 111.4 103.2C117.5 106 122.9 109.55 127.6 113.85C132.4 118.15 136.25 123.4 139.15 129.6C142.05 135.8 143.5 143.35 143.5 152.25C143.5 161.85 141.85 170.85 138.55 179.25C135.25 187.65 130.45 195 124.15 201.3C117.95 207.5 110.25 212.4 101.05 216C91.95 219.6 81.55 221.4 69.85 221.4C62.95 221.4 56.2 220.7 49.6 219.3C43.1 218 36.85 216.15 30.85 213.75C24.95 211.25 19.4 208.25 14.2 204.75C9 201.25 4.35 197.35 0.250001 193.05L10.45 176.25C11.35 174.85 12.5 173.75 13.9 172.95C15.3 172.15 16.85 171.75 18.55 171.75C20.85 171.75 23.4 172.85 26.2 175.05C29 177.15 32.35 179.5 36.25 182.1C40.25 184.6 45.05 186.95 50.65 189.15C56.25 191.25 62.95 192.3 70.75 192.3C83.45 192.3 93.25 189.2 100.15 183C107.15 176.8 110.65 168.25 110.65 157.35C110.65 151.25 109.2 146.3 106.3 142.5C103.4 138.6 99.55 135.35 94.75 132.75C90.05 130.15 84.65 127.95 78.55 126.15C72.45 124.35 66.25 122.45 59.95 120.45C53.65 118.35 47.45 115.95 41.35 113.25C35.25 110.45 29.8 106.85 25 102.45C20.3 97.95 16.5 92.45 13.6 85.95C10.7 79.35 9.25 71.15 9.25 61.35C9.25 53.55 10.75 46 13.75 38.7C16.85 31.4 21.3 24.95 27.1 19.35C33 13.65 40.25 9.1 48.85 5.69999C57.45 2.29999 67.25 0.599987 78.25 0.599987C90.65 0.599987 102 2.54999 112.3 6.44999C122.7 10.35 131.65 15.9 139.15 23.1L130.6 39.9ZM464.198 2.99999L396.998 219H365.348L314.648 63.9C314.048 62.2 313.448 60.35 312.848 58.35C312.348 56.35 311.848 54.2 311.348 51.9C310.848 54.2 310.298 56.35 309.698 58.35C309.198 60.35 308.648 62.2 308.048 63.9L256.898 219H225.248L158.048 2.99999H187.448C190.448 2.99999 192.948 3.74999 194.948 5.24999C197.048 6.65 198.448 8.6 199.148 11.1L239.648 149.55C240.448 152.55 241.198 155.8 241.898 159.3C242.598 162.8 243.298 166.45 243.998 170.25C244.698 166.45 245.448 162.8 246.248 159.3C247.148 155.7 248.098 152.45 249.098 149.55L295.448 11.1C296.148 9.1 297.548 7.24999 299.648 5.54999C301.748 3.84999 304.248 2.99999 307.148 2.99999H317.348C320.448 2.99999 322.948 3.79999 324.848 5.4C326.748 6.89999 328.198 8.79999 329.198 11.1L375.398 149.55C376.398 152.45 377.298 155.6 378.098 159C378.998 162.3 379.798 165.8 380.498 169.5C381.198 165.8 381.848 162.3 382.448 159C383.148 155.6 383.898 152.45 384.698 149.55L425.048 11.1C425.648 8.89999 426.998 6.99999 429.098 5.4C431.298 3.79999 433.848 2.99999 436.748 2.99999H464.198ZM466.954 200.4C466.954 197.5 467.454 194.8 468.454 192.3C469.554 189.7 471.004 187.45 472.804 185.55C474.704 183.65 476.904 182.15 479.404 181.05C482.004 179.95 484.754 179.4 487.654 179.4C490.554 179.4 493.254 179.95 495.754 181.05C498.354 182.15 500.604 183.65 502.504 185.55C504.404 187.45 505.904 189.7 507.004 192.3C508.104 194.8 508.654 197.5 508.654 200.4C508.654 203.4 508.104 206.15 507.004 208.65C505.904 211.15 504.404 213.35 502.504 215.25C500.604 217.15 498.354 218.6 495.754 219.6C493.254 220.7 490.554 221.25 487.654 221.25C484.754 221.25 482.004 220.7 479.404 219.6C476.904 218.6 474.704 217.15 472.804 215.25C471.004 213.35 469.554 211.15 468.454 208.65C467.454 206.15 466.954 203.4 466.954 200.4Z" fill="url(#paint0_linear_42_3)"/>
<defs>
<linearGradient id="paint0_linear_42_3" x1="258" y1="-77" x2="258" y2="283" gradientUnits="userSpaceOnUse">
<stop stop-color="#924DEA"/>
<stop offset="1" stop-color="#34D1FF"/>
</linearGradient>
</defs>
</svg>
