<svg width="171" height="74" viewBox="0 0 171 74" fill="none" xmlns="http://www.w3.org/2000/svg">
<path d="M44.2 13.3C43.8333 13.9 43.45 14.35 43.05 14.65C42.65 14.9167 42.15 15.05 41.55 15.05C40.9167 15.05 40.2 14.7833 39.4 14.25C38.6333 13.7167 37.6667 13.1333 36.5 12.5C35.3667 11.8333 34.0167 11.2333 32.45 10.7C30.8833 10.1333 29.0167 9.85 26.85 9.85C24.85 9.85 23.0833 10.1 21.55 10.6C20.05 11.1 18.7833 11.8 17.75 12.7C16.7167 13.6 15.9333 14.6667 15.4 15.9C14.9 17.1 14.65 18.4167 14.65 19.85C14.65 21.6833 15.1333 23.2167 16.1 24.45C17.0667 25.65 18.3333 26.6833 19.9 27.55C21.5 28.4167 23.3167 29.1833 25.35 29.85C27.3833 30.4833 29.45 31.1667 31.55 31.9C33.6833 32.6333 35.7667 33.4667 37.8 34.4C39.8333 35.3333 41.6333 36.5167 43.2 37.95C44.8 39.3833 46.0833 41.1333 47.05 43.2C48.0167 45.2667 48.5 47.7833 48.5 50.75C48.5 53.95 47.95 56.95 46.85 59.75C45.75 62.55 44.15 65 42.05 67.1C39.9833 69.1667 37.4167 70.8 34.35 72C31.3167 73.2 27.85 73.8 23.95 73.8C21.65 73.8 19.4 73.5667 17.2 73.1C15.0333 72.6667 12.95 72.05 10.95 71.25C8.98333 70.4167 7.13333 69.4167 5.4 68.25C3.66667 67.0833 2.11667 65.7833 0.75 64.35L4.15 58.75C4.45 58.2833 4.83333 57.9167 5.3 57.65C5.76667 57.3833 6.28333 57.25 6.85 57.25C7.61667 57.25 8.46667 57.6167 9.4 58.35C10.3333 59.05 11.45 59.8333 12.75 60.7C14.0833 61.5333 15.6833 62.3167 17.55 63.05C19.4167 63.75 21.65 64.1 24.25 64.1C28.4833 64.1 31.75 63.0667 34.05 61C36.3833 58.9333 37.55 56.0833 37.55 52.45C37.55 50.4167 37.0667 48.7667 36.1 47.5C35.1333 46.2 33.85 45.1167 32.25 44.25C30.6833 43.3833 28.8833 42.65 26.85 42.05C24.8167 41.45 22.75 40.8167 20.65 40.15C18.55 39.45 16.4833 38.65 14.45 37.75C12.4167 36.8167 10.6 35.6167 9 34.15C7.43333 32.65 6.16667 30.8167 5.2 28.65C4.23333 26.45 3.75 23.7167 3.75 20.45C3.75 17.85 4.25 15.3333 5.25 12.9C6.28333 10.4667 7.76667 8.31666 9.7 6.45C11.6667 4.55 14.0833 3.03333 16.95 1.9C19.8167 0.766663 23.0833 0.199996 26.75 0.199996C30.8833 0.199996 34.6667 0.849996 38.1 2.15C41.5667 3.45 44.55 5.3 47.05 7.69999L44.2 13.3ZM155.399 0.999997L132.999 73H122.449L105.549 21.3C105.349 20.7333 105.149 20.1167 104.949 19.45C104.783 18.7833 104.616 18.0667 104.449 17.3C104.283 18.0667 104.099 18.7833 103.899 19.45C103.733 20.1167 103.549 20.7333 103.349 21.3L86.2992 73H75.7492L53.3492 0.999997H63.1492C64.1492 0.999997 64.9826 1.25 65.6492 1.75C66.3492 2.21667 66.8159 2.86667 67.0492 3.7L80.5492 49.85C80.8159 50.85 81.0659 51.9333 81.2992 53.1C81.5326 54.2667 81.7659 55.4833 81.9992 56.75C82.2326 55.4833 82.4826 54.2667 82.7492 53.1C83.0492 51.9 83.3659 50.8167 83.6992 49.85L99.1492 3.7C99.3826 3.03333 99.8492 2.41666 100.549 1.85C101.249 1.28333 102.083 0.999997 103.049 0.999997H106.449C107.483 0.999997 108.316 1.26666 108.949 1.8C109.583 2.3 110.066 2.93333 110.399 3.7L125.799 49.85C126.133 50.8167 126.433 51.8667 126.699 53C126.999 54.1 127.266 55.2667 127.499 56.5C127.733 55.2667 127.949 54.1 128.149 53C128.383 51.8667 128.633 50.8167 128.899 49.85L142.349 3.7C142.549 2.96666 142.999 2.33333 143.699 1.8C144.433 1.26666 145.283 0.999997 146.249 0.999997H155.399ZM156.318 66.8C156.318 65.8333 156.485 64.9333 156.818 64.1C157.185 63.2333 157.668 62.4833 158.268 61.85C158.901 61.2167 159.635 60.7167 160.468 60.35C161.335 59.9833 162.251 59.8 163.218 59.8C164.185 59.8 165.085 59.9833 165.918 60.35C166.785 60.7167 167.535 61.2167 168.168 61.85C168.801 62.4833 169.301 63.2333 169.668 64.1C170.035 64.9333 170.218 65.8333 170.218 66.8C170.218 67.8 170.035 68.7167 169.668 69.55C169.301 70.3833 168.801 71.1167 168.168 71.75C167.535 72.3833 166.785 72.8667 165.918 73.2C165.085 73.5667 164.185 73.75 163.218 73.75C162.251 73.75 161.335 73.5667 160.468 73.2C159.635 72.8667 158.901 72.3833 158.268 71.75C157.668 71.1167 157.185 70.3833 156.818 69.55C156.485 68.7167 156.318 67.8 156.318 66.8Z" fill="url(#paint0_linear_42_3)"/>
<defs>
<linearGradient id="paint0_linear_42_3" x1="87" y1="-26" x2="87" y2="94" gradientUnits="userSpaceOnUse">
<stop stop-color="#924DEA"/>
<stop offset="1" stop-color="#34D1FF"/>
</linearGradient>
</defs>
</svg>
