<svg width="61" height="27" viewBox="0 0 61 27" fill="none" xmlns="http://www.w3.org/2000/svg">
<path d="M16.17 5.105C16.0417 5.315 15.9075 5.4725 15.7675 5.5775C15.6275 5.67083 15.4525 5.7175 15.2425 5.7175C15.0208 5.7175 14.77 5.62417 14.49 5.4375C14.2217 5.25083 13.8833 5.04667 13.475 4.825C13.0783 4.59167 12.6058 4.38167 12.0575 4.195C11.5092 3.99667 10.8558 3.8975 10.0975 3.8975C9.3975 3.8975 8.77917 3.985 8.2425 4.16C7.7175 4.335 7.27417 4.58 6.9125 4.895C6.55083 5.21 6.27667 5.58333 6.09 6.015C5.915 6.435 5.8275 6.89583 5.8275 7.3975C5.8275 8.03917 5.99667 8.57583 6.335 9.0075C6.67333 9.4275 7.11667 9.78917 7.665 10.0925C8.225 10.3958 8.86083 10.6642 9.5725 10.8975C10.2842 11.1192 11.0075 11.3583 11.7425 11.615C12.4892 11.8717 13.2183 12.1633 13.93 12.49C14.6417 12.8167 15.2717 13.2308 15.82 13.7325C16.38 14.2342 16.8292 14.8467 17.1675 15.57C17.5058 16.2933 17.675 17.1742 17.675 18.2125C17.675 19.3325 17.4825 20.3825 17.0975 21.3625C16.7125 22.3425 16.1525 23.2 15.4175 23.935C14.6942 24.6583 13.7958 25.23 12.7225 25.65C11.6608 26.07 10.4475 26.28 9.0825 26.28C8.2775 26.28 7.49 26.1983 6.72 26.035C5.96167 25.8833 5.2325 25.6675 4.5325 25.3875C3.84417 25.0958 3.19667 24.7458 2.59 24.3375C1.98333 23.9292 1.44083 23.4742 0.9625 22.9725L2.1525 21.0125C2.2575 20.8492 2.39167 20.7208 2.555 20.6275C2.71833 20.5342 2.89917 20.4875 3.0975 20.4875C3.36583 20.4875 3.66333 20.6158 3.99 20.8725C4.31667 21.1175 4.7075 21.3917 5.1625 21.695C5.62917 21.9867 6.18917 22.2608 6.8425 22.5175C7.49583 22.7625 8.2775 22.885 9.1875 22.885C10.6692 22.885 11.8125 22.5233 12.6175 21.8C13.4342 21.0767 13.8425 20.0792 13.8425 18.8075C13.8425 18.0958 13.6733 17.5183 13.335 17.075C12.9967 16.62 12.5475 16.2408 11.9875 15.9375C11.4392 15.6342 10.8092 15.3775 10.0975 15.1675C9.38583 14.9575 8.6625 14.7358 7.9275 14.5025C7.1925 14.2575 6.46917 13.9775 5.7575 13.6625C5.04583 13.3358 4.41 12.9158 3.85 12.4025C3.30167 11.8775 2.85833 11.2358 2.52 10.4775C2.18167 9.7075 2.0125 8.75083 2.0125 7.6075C2.0125 6.6975 2.1875 5.81667 2.5375 4.965C2.89917 4.11333 3.41833 3.36083 4.095 2.7075C4.78333 2.0425 5.62917 1.51167 6.6325 1.115C7.63583 0.718332 8.77917 0.519998 10.0625 0.519998C11.5092 0.519998 12.8333 0.747499 14.035 1.2025C15.2483 1.6575 16.2925 2.305 17.1675 3.145L16.17 5.105ZM55.0897 0.799999L47.2497 26H43.5572L37.6422 7.905C37.5722 7.70667 37.5022 7.49083 37.4322 7.2575C37.3739 7.02417 37.3156 6.77333 37.2572 6.505C37.1989 6.77333 37.1347 7.02417 37.0647 7.2575C37.0064 7.49083 36.9422 7.70667 36.8722 7.905L30.9047 26H27.2122L19.3722 0.799999H22.8022C23.1522 0.799999 23.4439 0.887499 23.6772 1.0625C23.9222 1.22583 24.0856 1.45333 24.1672 1.745L28.8922 17.8975C28.9856 18.2475 29.0731 18.6267 29.1547 19.035C29.2364 19.4433 29.3181 19.8692 29.3997 20.3125C29.4814 19.8692 29.5689 19.4433 29.6622 19.035C29.7672 18.615 29.8781 18.2358 29.9947 17.8975L35.4022 1.745C35.4839 1.51167 35.6472 1.29583 35.8922 1.0975C36.1372 0.899165 36.4289 0.799999 36.7672 0.799999H37.9572C38.3189 0.799999 38.6106 0.893333 38.8322 1.08C39.0539 1.255 39.2231 1.47667 39.3397 1.745L44.7297 17.8975C44.8464 18.2358 44.9514 18.6033 45.0447 19C45.1497 19.385 45.2431 19.7933 45.3247 20.225C45.4064 19.7933 45.4822 19.385 45.5522 19C45.6339 18.6033 45.7214 18.2358 45.8147 17.8975L50.5222 1.745C50.5922 1.48833 50.7497 1.26667 50.9947 1.08C51.2514 0.893333 51.5489 0.799999 51.8872 0.799999H55.0897ZM55.4113 23.83C55.4113 23.4917 55.4696 23.1767 55.5863 22.885C55.7146 22.5817 55.8838 22.3192 56.0938 22.0975C56.3155 21.8758 56.5721 21.7008 56.8638 21.5725C57.1671 21.4442 57.488 21.38 57.8263 21.38C58.1646 21.38 58.4796 21.4442 58.7713 21.5725C59.0746 21.7008 59.3371 21.8758 59.5588 22.0975C59.7805 22.3192 59.9555 22.5817 60.0838 22.885C60.2121 23.1767 60.2763 23.4917 60.2763 23.83C60.2763 24.18 60.2121 24.5008 60.0838 24.7925C59.9555 25.0842 59.7805 25.3408 59.5588 25.5625C59.3371 25.7842 59.0746 25.9533 58.7713 26.07C58.4796 26.1983 58.1646 26.2625 57.8263 26.2625C57.488 26.2625 57.1671 26.1983 56.8638 26.07C56.5721 25.9533 56.3155 25.7842 56.0938 25.5625C55.8838 25.3408 55.7146 25.0842 55.5863 24.7925C55.4696 24.5008 55.4113 24.18 55.4113 23.83Z" fill="url(#paint0_linear_42_3)"/>
<defs>
<linearGradient id="paint0_linear_42_3" x1="31" y1="-9" x2="31" y2="33" gradientUnits="userSpaceOnUse">
<stop stop-color="#924DEA"/>
<stop offset="1" stop-color="#34D1FF"/>
</linearGradient>
</defs>
</svg>
